{
  "accessors": [
    {
      "bufferView": 2,
      "componentType": 5126,
      "count": 899,
      "max": [
        0.8229997158050537,
        4.445003986358643,
        0.5459598898887634
      ],
      "min": [
        -4.187623023986816,
        -0.6193771362304688,
        -2.0171236991882324
      ],
      "type": "VEC3"
    },
    {
      "bufferView": 2,
      "byteOffset": 10788,
      "componentType": 5126,
      "count": 899,
      "max": [
        0.9994389414787292,
        0.9837775826454163,
        0.999545693397522
      ],
      "min": [
        -0.9996042847633362,
        -0.9968610405921936,
        -0.9991979598999023
      ],
      "type": "VEC3"
    },
    {
      "bufferView": 3,
      "componentType": 5126,
      "count": 899,
      "max": [
        0.995834469795227,
        0.9965171813964844,
        0.9988928437232971,
        1.0
      ],
      "min": [
        -0.9942800402641296,
        -0.9975858926773071,
        -0.9984911680221558,
        -1.0
      ],
      "type": "VEC4"
    },
    {
      "bufferView": 1,
      "componentType": 5126,
      "count": 899,
      "max": [
        0.9913979768753052,
        0.9970859885215759
      ],
      "min": [
        0.0035890000872313976,
        0.005160000175237656
      ],
      "type": "VEC2"
    },
    {
      "bufferView": 1,
      "byteOffset": 7192,
      "componentType": 5126,
      "count": 899,
      "max": [
        0.9913979768753052,
        0.9970859885215759
      ],
      "min": [
        0.0035890000872313976,
        0.005160000175237656
      ],
      "type": "VEC2"
    },
    {
      "bufferView": 0,
      "componentType": 5125,
      "count": 4242,
      "type": "SCALAR"
    },
    {
      "bufferView": 2,
      "byteOffset": 21576,
      "componentType": 5126,
      "count": 72,
      "max": [
        0.36265212297439575,
        3.089113473892212,
        0.12943583726882935
      ],
      "min": [
        -3.8321375846862793,
        0.857284426689148,
        -1.0470623970031738
      ],
      "type": "VEC3"
    },
    {
      "bufferView": 2,
      "byteOffset": 22440,
      "componentType": 5126,
      "count": 72,
      "max": [
        0.8492237329483032,
        0.9999826550483704,
        1.0
      ],
      "min": [
        -0.7798231244087219,
        -0.9999956488609314,
        -0.7197652459144592
      ],
      "type": "VEC3"
    },
    {
      "bufferView": 3,
      "byteOffset": 14384,
      "componentType": 5126,
      "count": 72,
      "max": [
        1.0,
        0.4508497714996338,
        0.9982994198799133,
        1.0
      ],
      "min": [
        -0.9274948239326477,
        -0.2640347480773926,
        -0.999984622001648,
        1.0
      ],
      "type": "VEC4"
    },
    {
      "bufferView": 1,
      "byteOffset": 14384,
      "componentType": 5126,
      "count": 72,
      "max": [
        0.8347139954566956,
        0.991212010383606
      ],
      "min": [
        0.03342900052666664,
        0.023367000743746758
      ],
      "type": "VEC2"
    },
    {
      "bufferView": 1,
      "byteOffset": 14960,
      "componentType": 5126,
      "count": 72,
      "max": [
        0.8347139954566956,
        0.991212010383606
      ],
      "min": [
        0.03342900052666664,
        0.023367000743746758
      ],
      "type": "VEC2"
    },
    {
      "bufferView": 0,
      "byteOffset": 16968,
      "componentType": 5125,
      "count": 234,
      "type": "SCALAR"
    },
    {
      "bufferView": 2,
      "byteOffset": 23304,
      "componentType": 5126,
      "count": 855,
      "max": [
        0.5286442041397095,
        1.4491912126541138,
        0.4890330135822296
      ],
      "min": [
        -0.34050819277763367,
        -0.5766332149505615,
        -0.3843171000480652
      ],
      "type": "VEC3"
    },
    {
      "bufferView": 2,
      "byteOffset": 33564,
      "componentType": 5126,
      "count": 855,
      "max": [
        0.999046266078949,
        0.9999999403953552,
        0.9998514652252197
      ],
      "min": [
        -0.9988987445831299,
        -0.995293140411377,
        -0.9998514652252197
      ],
      "type": "VEC3"
    },
    {
      "bufferView": 3,
      "byteOffset": 15536,
      "componentType": 5126,
      "count": 855,
      "max": [
        0.9989832639694214,
        0.9998506307601929,
        0.9997912049293518,
        1.0
      ],
      "min": [
        -0.9988389611244202,
        -0.9990954995155334,
        -0.9992765188217163,
        -1.0
      ],
      "type": "VEC4"
    },
    {
      "bufferView": 1,
      "byteOffset": 15536,
      "componentType": 5126,
      "count": 855,
      "max": [
        0.9943263530731201,
        0.993893027305603
      ],
      "min": [
        0.01013603713363409,
        0.010644436813890934
      ],
      "type": "VEC2"
    },
    {
      "bufferView": 1,
      "byteOffset": 22376,
      "componentType": 5126,
      "count": 855,
      "max": [
        0.9943263530731201,
        0.993893027305603
      ],
      "min": [
        0.01013603713363409,
        0.010644436813890934
      ],
      "type": "VEC2"
    },
    {
      "bufferView": 0,
      "byteOffset": 17904,
      "componentType": 5125,
      "count": 2904,
      "type": "SCALAR"
    },
    {
      "bufferView": 2,
      "byteOffset": 43824,
      "componentType": 5126,
      "count": 451,
      "max": [
        1.2868646383285522,
        0.25079527497291565,
        1.0422437191009521
      ],
      "min": [
        0.43100735545158386,
        -0.5909343957901001,
        0.1975984424352646
      ],
      "type": "VEC3"
    },
    {
      "bufferView": 2,
      "byteOffset": 49236,
      "componentType": 5126,
      "count": 451,
      "max": [
        0.9994518160820007,
        0.9999533891677856,
        0.996049702167511
      ],
      "min": [
        -0.9989796280860901,
        -0.9994685649871826,
        -0.9992848634719849
      ],
      "type": "VEC3"
    },
    {
      "bufferView": 3,
      "byteOffset": 29216,
      "componentType": 5126,
      "count": 451,
      "max": [
        0.9998304843902588,
        0.9854359030723572,
        0.9982731342315674,
        1.0
      ],
      "min": [
        -0.9989054799079895,
        -0.9997950792312622,
        -0.9997365474700928,
        -1.0
      ],
      "type": "VEC4"
    },
    {
      "bufferView": 1,
      "byteOffset": 29216,
      "componentType": 5126,
      "count": 451,
      "max": [
        0.9850220084190369,
        0.9903129935264587
      ],
      "min": [
        0.0054259998723864555,
        0.010586000047624111
      ],
      "type": "VEC2"
    },
    {
      "bufferView": 1,
      "byteOffset": 32824,
      "componentType": 5126,
      "count": 451,
      "max": [
        0.9850220084190369,
        0.9903129935264587
      ],
      "min": [
        0.0054259998723864555,
        0.010586000047624111
      ],
      "type": "VEC2"
    },
    {
      "bufferView": 0,
      "byteOffset": 29520,
      "componentType": 5125,
      "count": 1722,
      "type": "SCALAR"
    },
    {
      "bufferView": 2,
      "byteOffset": 54648,
      "componentType": 5126,
      "count": 491,
      "max": [
        -0.2473103404045105,
        0.5745564699172974,
        0.9642218351364136
      ],
      "min": [
        -1.1053744554519653,
        -0.5819106101989746,
        0.08299975097179413
      ],
      "type": "VEC3"
    },
    {
      "bufferView": 2,
      "byteOffset": 60540,
      "componentType": 5126,
      "count": 491,
      "max": [
        0.9956055879592896,
        0.9975059032440186,
        0.9997702240943909
      ],
      "min": [
        -0.9992013573646545,
        -0.999980628490448,
        -0.9967174530029297
      ],
      "type": "VEC3"
    },
    {
      "bufferView": 3,
      "byteOffset": 36432,
      "componentType": 5126,
      "count": 491,
      "max": [
        0.9995283484458923,
        0.9956425428390503,
        0.9932520389556885,
        1.0
      ],
      "min": [
        -0.9991531372070313,
        -0.995086133480072,
        -0.9978680610656738,
        -1.0
      ],
      "type": "VEC4"
    },
    {
      "bufferView": 1,
      "byteOffset": 36432,
      "componentType": 5126,
      "count": 491,
      "max": [
        0.9943029880523682,
        0.9869499802589417
      ],
      "min": [
        0.017292000353336334,
        0.010065999813377857
      ],
      "type": "VEC2"
    },
    {
      "bufferView": 1,
      "byteOffset": 40360,
      "componentType": 5126,
      "count": 491,
      "max": [
        0.9943029880523682,
        0.9869499802589417
      ],
      "min": [
        0.017292000353336334,
        0.010065999813377857
      ],
      "type": "VEC2"
    },
    {
      "bufferView": 0,
      "byteOffset": 36408,
      "componentType": 5125,
      "count": 1776,
      "type": "SCALAR"
    },
    {
      "bufferView": 2,
      "byteOffset": 66432,
      "componentType": 5126,
      "count": 478,
      "max": [
        -0.9878122806549072,
        0.05433379486203194,
        1.3632243871688843
      ],
      "min": [
        -1.781434178352356,
        -0.5867816805839539,
        0.5326674580574036
      ],
      "type": "VEC3"
    },
    {
      "bufferView": 2,
      "byteOffset": 72168,
      "componentType": 5126,
      "count": 478,
      "max": [
        0.9976885914802551,
        0.9968064427375793,
        0.9967660307884216
      ],
      "min": [
        -0.9881346821784973,
        -0.997788667678833,
        -0.997422456741333
      ],
      "type": "VEC3"
    },
    {
      "bufferView": 3,
      "byteOffset": 44288,
      "componentType": 5126,
      "count": 478,
      "max": [
        0.9999282360076904,
        0.9999781847000122,
        0.996039867401123,
        1.0
      ],
      "min": [
        -0.9999696016311646,
        -0.995199978351593,
        -0.9852553009986877,
        -1.0
      ],
      "type": "VEC4"
    },
    {
      "bufferView": 1,
      "byteOffset": 44288,
      "componentType": 5126,
      "count": 478,
      "max": [
        0.980525016784668,
        0.9896199703216553
      ],
      "min": [
        0.004693999886512756,
        0.011857000179588795
      ],
      "type": "VEC2"
    },
    {
      "bufferView": 1,
      "byteOffset": 48112,
      "componentType": 5126,
      "count": 478,
      "max": [
        0.980525016784668,
        0.9896199703216553
      ],
      "min": [
        0.004693999886512756,
        0.011857000179588795
      ],
      "type": "VEC2"
    },
    {
      "bufferView": 0,
      "byteOffset": 43512,
      "componentType": 5125,
      "count": 1674,
      "type": "SCALAR"
    }
  ],
  "asset": {
    "extras": {
      "author": "Sachi.Nishimura (https://sketchfab.com/petit.peache)",
      "license": "CC-BY-4.0 (http://creativecommons.org/licenses/by/4.0/)",
      "source": "https://sketchfab.com/3d-models/jack-o-lantern-low-poly-e27d527b9d234911ba8dbaa04ee9f0c7",
      "title": "Jack-o'-Lantern low-poly"
    },
    "generator": "Sketchfab-12.66.0",
    "version": "2.0"
  },
  "bufferViews": [
    {
      "buffer": 0,
      "byteLength": 50208,
      "name": "floatBufferViews",
      "target": 34963
    },
    {
      "buffer": 0,
      "byteLength": 51936,
      "byteOffset": 50208,
      "byteStride": 8,
      "name": "floatBufferViews",
      "target": 34962
    },
    {
      "buffer": 0,
      "byteLength": 77904,
      "byteOffset": 102144,
      "byteStride": 12,
      "name": "floatBufferViews",
      "target": 34962
    },
    {
      "buffer": 0,
      "byteLength": 51936,
      "byteOffset": 180048,
      "byteStride": 16,
      "name": "floatBufferViews",
      "target": 34962
    }
  ],
  "buffers": [
    {
      "byteLength": 231984,
      "uri": "scene.bin"
    }
  ],
  "images": [
    {
      "uri": "textures/Jack_tree_baseColor.png"
    },
    {
      "uri": "textures/Jack_tree_metallicRoughness.png"
    },
    {
      "uri": "textures/Jack_tree_emissive.png"
    },
    {
      "uri": "textures/Jack_tree_normal.png"
    },
    {
      "uri": "textures/Jack_tree_pumpkin_baseColor.png"
    },
    {
      "uri": "textures/Jack_tree_pumpkin_metallicRoughness.png"
    },
    {
      "uri": "textures/Jack_tree_pumpkin_normal.png"
    },
    {
      "uri": "textures/jack_tower_baseColor.png"
    },
    {
      "uri": "textures/jack_tower_metallicRoughness.png"
    },
    {
      "uri": "textures/jack_tower_emissive.png"
    },
    {
      "uri": "textures/jack_tower_normal.png"
    },
    {
      "uri": "textures/Jack_o_lerntern_baseColor.png"
    },
    {
      "uri": "textures/Jack_o_lerntern_metallicRoughness.png"
    },
    {
      "uri": "textures/Jack_o_lerntern_emissive.png"
    },
    {
      "uri": "textures/Jack_o_lerntern_normal.png"
    },
    {
      "uri": "textures/Jack_o_lerntern_long_baseColor.png"
    },
    {
      "uri": "textures/Jack_o_lerntern_long_metallicRoughness.png"
    },
    {
      "uri": "textures/Jack_o_lerntern_long_emissive.png"
    },
    {
      "uri": "textures/Jack_o_lerntern_long_normal.png"
    },
    {
      "uri": "textures/Jack_o_lerntern_oblong_baseColor.png"
    },
    {
      "uri": "textures/Jack_o_lerntern_oblong_metallicRoughness.png"
    },
    {
      "uri": "textures/Jack_o_lerntern_oblong_emissive.png"
    },
    {
      "uri": "textures/Jack_o_lerntern_oblong_normal.png"
    }
  ],
  "materials": [
    {
      "doubleSided": true,
      "emissiveFactor": [
        1.0,
        1.0,
        1.0
      ],
      "emissiveTexture": {
        "index": 2
      },
      "name": "Jack_tree",
      "normalTexture": {
        "index": 3
      },
      "occlusionTexture": {
        "index": 1
      },
      "pbrMetallicRoughness": {
        "baseColorTexture": {
          "index": 0
        },
        "metallicFactor": 0.0,
        "metallicRoughnessTexture": {
          "index": 1
        }
      }
    },
    {
      "doubleSided": true,
      "name": "Jack_tree_pumpkin",
      "normalTexture": {
        "index": 6
      },
      "occlusionTexture": {
        "index": 5
      },
      "pbrMetallicRoughness": {
        "baseColorTexture": {
          "index": 4
        },
        "metallicFactor": 0.0,
        "metallicRoughnessTexture": {
          "index": 5
        }
      }
    },
    {
      "doubleSided": true,
      "emissiveFactor": [
        1.0,
        1.0,
        1.0
      ],
      "emissiveTexture": {
        "index": 9
      },
      "name": "jack_tower",
      "normalTexture": {
        "index": 10
      },
      "occlusionTexture": {
        "index": 8
      },
      "pbrMetallicRoughness": {
        "baseColorTexture": {
          "index": 7
        },
        "metallicFactor": 0.0,
        "metallicRoughnessTexture": {
          "index": 8
        }
      }
    },
    {
      "doubleSided": true,
      "emissiveFactor": [
        1.0,
        1.0,
        1.0
      ],
      "emissiveTexture": {
        "index": 13
      },
      "name": "Jack_o_lerntern",
      "normalTexture": {
        "index": 14
      },
      "occlusionTexture": {
        "index": 12
      },
      "pbrMetallicRoughness": {
        "baseColorTexture": {
          "index": 11
        },
        "metallicFactor": 0.0,
        "metallicRoughnessTexture": {
          "index": 12
        }
      }
    },
    {
      "doubleSided": true,
      "emissiveFactor": [
        1.0,
        1.0,
        1.0
      ],
      "emissiveTexture": {
        "index": 17
      },
      "name": "Jack_o_lerntern_long",
      "normalTexture": {
        "index": 18
      },
      "occlusionTexture": {
        "index": 16
      },
      "pbrMetallicRoughness": {
        "baseColorTexture": {
          "index": 15
        },
        "metallicFactor": 0.0,
        "metallicRoughnessTexture": {
          "index": 16
        }
      }
    },
    {
      "doubleSided": true,
      "emissiveFactor": [
        1.0,
        1.0,
        1.0
      ],
      "emissiveTexture": {
        "index": 21
      },
      "name": "Jack_o_lerntern_oblong",
      "normalTexture": {
        "index": 22
      },
      "occlusionTexture": {
        "index": 20
      },
      "pbrMetallicRoughness": {
        "baseColorTexture": {
          "index": 19
        },
        "metallicFactor": 0.0,
        "metallicRoughnessTexture": {
          "index": 20
        }
      }
    }
  ],
  "meshes": [
    {
      "name": "Jack_tree_Jack_tree_0",
      "primitives": [
        {
          "attributes": {
            "NORMAL": 1,
            "POSITION": 0,
            "TANGENT": 2,
            "TEXCOORD_0": 3,
            "TEXCOORD_1": 4
          },
          "indices": 5,
          "material": 0,
          "mode": 4
        }
      ]
    },
    {
      "name": "Jack_tree_pumpkin_Jack_tree_pumpkin_0",
      "primitives": [
        {
          "attributes": {
            "NORMAL": 7,
            "POSITION": 6,
            "TANGENT": 8,
            "TEXCOORD_0": 9,
            "TEXCOORD_1": 10
          },
          "indices": 11,
          "material": 1,
          "mode": 4
        }
      ]
    },
    {
      "name": "jack_tower_jack_tower_0",
      "primitives": [
        {
          "attributes": {
            "NORMAL": 13,
            "POSITION": 12,
            "TANGENT": 14,
            "TEXCOORD_0": 15,
            "TEXCOORD_1": 16
          },
          "indices": 17,
          "material": 2,
          "mode": 4
        }
      ]
    },
    {
      "name": "Jack_o_lerntern_Jack_o_lerntern_0",
      "primitives": [
        {
          "attributes": {
            "NORMAL": 19,
            "POSITION": 18,
            "TANGENT": 20,
            "TEXCOORD_0": 21,
            "TEXCOORD_1": 22
          },
          "indices": 23,
          "material": 3,
          "mode": 4
        }
      ]
    },
    {
      "name": "Jack_o_lerntern_long_Jack_o_lerntern_long_0",
      "primitives": [
        {
          "attributes": {
            "NORMAL": 25,
            "POSITION": 24,
            "TANGENT": 26,
            "TEXCOORD_0": 27,
            "TEXCOORD_1": 28
          },
          "indices": 29,
          "material": 4,
          "mode": 4
        }
      ]
    },
    {
      "name": "Jack_o_lerntern_oblong_Jack_o_lerntern_oblong_0",
      "primitives": [
        {
          "attributes": {
            "NORMAL": 31,
            "POSITION": 30,
            "TANGENT": 32,
            "TEXCOORD_0": 33,
            "TEXCOORD_1": 34
          },
          "indices": 35,
          "material": 5,
          "mode": 4
        }
      ]
    }
  ],
  "nodes": [
    {
      "children": [
        1
      ],
      "matrix": [
        0.9618254899978638,
        0.0,
        0.0,
        0.0,
        0.0,
        2.1356816093340031e-16,
        -0.9618254899978638,
        0.0,
        0.0,
        0.9618254899978638,
        2.1356816093340031e-16,
        0.0,
        0.0,
        0.0,
        0.0,
        1.0
      ],
      "name": "Sketchfab_model"
    },
    {
      "children": [
        2
      ],
      "matrix": [
        1.0,
        0.0,
        0.0,
        0.0,
        0.0,
        0.0,
        1.0,
        0.0,
        0.0,
        -1.0,
        0.0,
        0.0,
        0.0,
        0.0,
        0.0,
        1.0
      ],
      "name": "bf778af9847b4781be0051776655cd13.fbx"
    },
    {
      "children": [
        3,
        5,
        7,
        9,
        11,
        13
      ],
      "name": "RootNode"
    },
    {
      "children": [
        4
      ],
      "name": "Jack_tree"
    },
    {
      "mesh": 0,
      "name": "Jack_tree_Jack_tree_0"
    },
    {
      "children": [
        6
      ],
      "name": "Jack_tree_pumpkin"
    },
    {
      "mesh": 1,
      "name": "Jack_tree_pumpkin_Jack_tree_pumpkin_0"
    },
    {
      "children": [
        8
      ],
      "name": "jack_tower"
    },
    {
      "mesh": 2,
      "name": "jack_tower_jack_tower_0"
    },
    {
      "children": [
        10
      ],
      "name": "Jack_o_lerntern"
    },
    {
      "mesh": 3,
      "name": "Jack_o_lerntern_Jack_o_lerntern_0"
    },
    {
      "children": [
        12
      ],
      "name": "Jack_o_lerntern_long"
    },
    {
      "mesh": 4,
      "name": "Jack_o_lerntern_long_Jack_o_lerntern_long_0"
    },
    {
      "children": [
        14
      ],
      "name": "Jack_o_lerntern_oblong"
    },
    {
      "mesh": 5,
      "name": "Jack_o_lerntern_oblong_Jack_o_lerntern_oblong_0"
    }
  ],
  "samplers": [
    {
      "magFilter": 9729,
      "minFilter": 9987,
      "wrapS": 10497,
      "wrapT": 10497
    }
  ],
  "scene": 0,
  "scenes": [
    {
      "name": "Sketchfab_Scene",
      "nodes": [
        0
      ]
    }
  ],
  "textures": [
    {
      "sampler": 0,
      "source": 0
    },
    {
      "sampler": 0,
      "source": 1
    },
    {
      "sampler": 0,
      "source": 2
    },
    {
      "sampler": 0,
      "source": 3
    },
    {
      "sampler": 0,
      "source": 4
    },
    {
      "sampler": 0,
      "source": 5
    },
    {
      "sampler": 0,
      "source": 6
    },
    {
      "sampler": 0,
      "source": 7
    },
    {
      "sampler": 0,
      "source": 8
    },
    {
      "sampler": 0,
      "source": 9
    },
    {
      "sampler": 0,
      "source": 10
    },
    {
      "sampler": 0,
      "source": 11
    },
    {
      "sampler": 0,
      "source": 12
    },
    {
      "sampler": 0,
      "source": 13
    },
    {
      "sampler": 0,
      "source": 14
    },
    {
      "sampler": 0,
      "source": 15
    },
    {
      "sampler": 0,
      "source": 16
    },
    {
      "sampler": 0,
      "source": 17
    },
    {
      "sampler": 0,
      "source": 18
    },
    {
      "sampler": 0,
      "source": 19
    },
    {
      "sampler": 0,
      "source": 20
    },
    {
      "sampler": 0,
      "source": 21
    },
    {
      "sampler": 0,
      "source": 22
    }
  ]
}
